<svg width="32" height="32" viewBox="0 0 32 32" fill="none" xmlns="http://www.w3.org/2000/svg">
<path d="M16.0003 25.6C12.667 25.6 9.72033 23.8934 8.00033 21.3334C8.04033 18.6667 13.3337 17.2 16.0003 17.2C18.667 17.2 23.9603 18.6667 24.0003 21.3334C22.2803 23.8934 19.3337 25.6 16.0003 25.6ZM16.0003 6.66669C17.0612 6.66669 18.0786 7.08811 18.8288 7.83826C19.5789 8.58841 20.0003 9.60582 20.0003 10.6667C20.0003 11.7276 19.5789 12.745 18.8288 13.4951C18.0786 14.2453 17.0612 14.6667 16.0003 14.6667C14.9395 14.6667 13.922 14.2453 13.1719 13.4951C12.4218 12.745 12.0003 11.7276 12.0003 10.6667C12.0003 9.60582 12.4218 8.58841 13.1719 7.83826C13.922 7.08811 14.9395 6.66669 16.0003 6.66669ZM16.0003 2.66669C14.2494 2.66669 12.5156 3.01156 10.8979 3.68163C9.2802 4.35169 7.81035 5.33382 6.57224 6.57193C4.07175 9.07242 2.66699 12.4638 2.66699 16C2.66699 19.5362 4.07175 22.9276 6.57224 25.4281C7.81035 26.6662 9.2802 27.6484 10.8979 28.3184C12.5156 28.9885 14.2494 29.3334 16.0003 29.3334C19.5365 29.3334 22.9279 27.9286 25.4284 25.4281C27.9289 22.9276 29.3337 19.5362 29.3337 16C29.3337 8.62669 23.3337 2.66669 16.0003 2.66669Z" fill="#A6A6A6"/>
</svg>
