<svg width="19" height="19" viewBox="0 0 19 19" fill="none" xmlns="http://www.w3.org/2000/svg">
<circle r="9" transform="matrix(1 -0.000135555 -0.000160411 1 9.00146 9.00122)" fill="#FCD620"/>
<path d="M7.78778 12.768C7.63416 12.768 7.48663 12.7071 7.37769 12.5982L4.2781 9.49887C4.05155 9.27244 4.05161 8.90514 4.27823 8.67852C4.50473 8.45191 4.87215 8.45174 5.09858 8.67841L7.76418 11.3436L13.096 5.37212C13.3093 5.13335 13.676 5.1122 13.9151 5.3256C14.154 5.539 14.1748 5.90568 13.9613 6.1447L8.2205 12.5741C8.11427 12.6931 7.96361 12.7631 7.80416 12.7677C7.7987 12.7679 7.79324 12.768 7.78778 12.768Z" fill="#231F20"/>
</svg>
