<svg width="16" height="16" viewBox="0 0 16 16" fill="none" xmlns="http://www.w3.org/2000/svg">
<path d="M3.10943 9.25736C3.80385 9.25736 4.3668 8.69442 4.3668 7.99999C4.3668 7.30556 3.80385 6.74261 3.10943 6.74261C2.415 6.74261 1.85205 7.30556 1.85205 7.99999C1.85205 8.69442 2.415 9.25736 3.10943 9.25736Z" fill="black"/>
<path d="M3.10943 13.7686C3.80385 13.7686 4.3668 13.2057 4.3668 12.5113C4.3668 11.8168 3.80385 11.2539 3.10943 11.2539C2.415 11.2539 1.85205 11.8168 1.85205 12.5113C1.85205 13.2057 2.415 13.7686 3.10943 13.7686Z" fill="black"/>
<path d="M3.11028 4.74601C3.80464 4.74601 4.36753 4.18312 4.36753 3.48876C4.36753 2.7944 3.80464 2.23151 3.11028 2.23151C2.41592 2.23151 1.85303 2.7944 1.85303 3.48876C1.85303 4.18312 2.41592 4.74601 3.11028 4.74601Z" fill="black"/>
<path d="M6.08496 3.48874H14.1476" stroke="black" stroke-width="1.79171" stroke-miterlimit="10"/>
<path d="M6.08496 8H14.1476" stroke="black" stroke-width="1.79171" stroke-miterlimit="10"/>
<path d="M6.08496 12.5112H14.1476" stroke="black" stroke-width="1.79171" stroke-miterlimit="10"/>
</svg>
