<svg width="36" height="24" viewBox="0 0 36 24" fill="none" xmlns="http://www.w3.org/2000/svg">
<path d="M26.5911 0.35142C26.8396 0.0113361 27.0995 0 27.461 0L31.6071 0.0226722C32.1607 0.0226722 32.7595 0.544134 32.5674 1.0996L17.1352 23.4544C16.6946 24.0553 16.1636 23.9986 15.8021 23.9986L11.3961 23.9759C11.0685 23.9759 10.6505 23.4431 11.0007 22.933L26.5911 0.35142Z" fill="white"/>
<path d="M16.6082 22.8895C16.9042 23.6034 16.7107 24 16.3919 24H11.2009C10.8594 24 10.5634 23.7734 10.4496 23.4448L0.0447463 1.11048C-0.137395 0.555241 0.261036 0 0.796076 0H5.24715C5.58866 0 5.88465 0.226629 6.02125 0.555241L16.6082 22.8895Z" fill="black"/>
<path d="M30.1951 22.8895C30.4875 23.6034 30.2963 24 29.9815 24H24.5619C24.2471 24 23.9323 23.7734 23.8198 23.4448L13.1831 1.11048C12.9919 0.555241 13.363 0 13.9252 0H18.6251C18.9737 0 19.2548 0.226629 19.3672 0.555241L30.1951 22.8895Z" fill="black"/>
<path d="M35.0413 5.2282C35.4284 6.1128 34.9417 6.33962 34.6209 6.33962H30.2405C29.9308 6.33962 29.4109 6.14683 29.256 5.78391L26.734 1.11142C26.3911 0.419617 26.6565 0 27.1986 0H31.5237C31.8666 0 32.3312 0.192797 32.5081 0.555709L35.0413 5.2282Z" fill="black"/>
</svg>
