<svg width="19" height="19" viewBox="0 0 19 19" fill="none" xmlns="http://www.w3.org/2000/svg">
<path d="M8.72801 2.62412L8.62801 2.62412L8.62801 2.72412L8.62801 9.08064L2.27148 9.08064L2.17148 9.08064L2.17148 9.18064L2.17148 9.7676L2.17148 9.8676L2.27148 9.8676L8.62801 9.8676L8.62801 16.2241L8.62801 16.3241L8.72801 16.3241L9.31496 16.3241L9.41496 16.3241L9.41496 16.2241L9.41496 9.8676L15.7715 9.8676L15.8715 9.8676L15.8715 9.7676L15.8715 9.18064L15.8715 9.08064L15.7715 9.08064L9.41496 9.08064L9.41496 2.72412L9.41496 2.62412L9.31496 2.62412L8.72801 2.62412Z" fill="#FCD620" stroke="#FCD620" stroke-width="0.2"/>
</svg>
